<?xml version="1.0" encoding="UTF-8" standalone="no"?>
<!-- Generator: Adobe Illustrator 17.0.0, SVG Export Plug-In . SVG Version: 6.00 Build 0)  -->

<svg
   xmlns:dc="http://purl.org/dc/elements/1.1/"
   xmlns:cc="http://creativecommons.org/ns#"
   xmlns:rdf="http://www.w3.org/1999/02/22-rdf-syntax-ns#"
   xmlns:svg="http://www.w3.org/2000/svg"
   xmlns="http://www.w3.org/2000/svg"
   xmlns:sodipodi="http://sodipodi.sourceforge.net/DTD/sodipodi-0.dtd"
   xmlns:inkscape="http://www.inkscape.org/namespaces/inkscape"
   version="1.1"
   id="Layer_1"
   x="0px"
   y="0px"
   width="478px"
   height="86px"
   viewBox="0 0 478 86"
   enable-background="new 0 0 478 86"
   xml:space="preserve"
   sodipodi:docname="logo.svg"
   inkscape:version="0.92.4 (5da689c313, 2019-01-14)"><metadata
   id="metadata9"><rdf:RDF><cc:Work
       rdf:about=""><dc:format>image/svg+xml</dc:format><dc:type
         rdf:resource="http://purl.org/dc/dcmitype/StillImage" /></cc:Work></rdf:RDF></metadata><defs
   id="defs7" /><sodipodi:namedview
   pagecolor="#ffffff"
   bordercolor="#666666"
   borderopacity="1"
   objecttolerance="10"
   gridtolerance="10"
   guidetolerance="10"
   inkscape:pageopacity="0"
   inkscape:pageshadow="2"
   inkscape:window-width="1366"
   inkscape:window-height="688"
   id="namedview5"
   showgrid="false"
   inkscape:zoom="0.79497908"
   inkscape:cx="63.523684"
   inkscape:cy="-57.631579"
   inkscape:window-x="0"
   inkscape:window-y="27"
   inkscape:window-maximized="1"
   inkscape:current-layer="text4753" />

<g
   aria-label="VUE Basic Blog"
   style="font-style:normal;font-weight:normal;font-size:62.73309708px;line-height:39.20819092px;font-family:sans-serif;letter-spacing:0px;word-spacing:0px;fill:#000000;fill-opacity:1;stroke:none;stroke-width:1.56832755"
   id="text4753"><g
     id="g3748"
     style="fill:#ffffff"><path
       id="path3711"
       style="font-style:normal;font-variant:normal;font-weight:normal;font-stretch:normal;font-family:Candara;-inkscape-font-specification:Candara;fill:#ffffff;stroke-width:1.56832755"
       d="M 22.195497,59.133892 4.7356015,13.401219 H 11.198826 L 25.687476,51.904883 40.206757,13.401219 H 46.63935 L 29.210086,59.133892 Z" /><path
       id="path3713"
       style="font-style:normal;font-variant:normal;font-weight:normal;font-stretch:normal;font-family:Candara;-inkscape-font-specification:Candara;fill:#ffffff;stroke-width:1.56832755"
       d="m 52.581841,13.401219 h 6.218173 v 27.782676 q 0,7.351534 2.664931,10.598462 2.664931,3.216297 8.638054,3.216297 5.94249,0 8.607422,-3.216297 2.664931,-3.246928 2.664931,-10.598462 V 13.401219 h 6.218173 v 28.54846 q 0,8.944368 -4.441552,13.508446 -4.410921,4.564078 -13.048974,4.564078 -8.668685,0 -13.110238,-4.564078 -4.41092,-4.564078 -4.41092,-13.508446 z" /><path
       id="path3715"
       style="font-style:normal;font-variant:normal;font-weight:normal;font-stretch:normal;font-family:Candara;-inkscape-font-specification:Candara;fill:#ffffff;stroke-width:1.56832755"
       d="m 99.233457,13.401219 h 28.916033 v 5.207337 H 105.421 v 13.539077 h 21.77892 V 37.35497 H 105.421 v 16.571585 h 23.27986 v 5.207337 H 99.233457 Z" /><path
       id="path3717"
       style="font-style:normal;font-variant:normal;font-weight:normal;font-stretch:normal;font-family:Candara;-inkscape-font-specification:Candara;fill:#ffffff;stroke-width:1.56832755"
       d="M 165.09096,37.293707 V 54.04908 h 9.92457 q 4.99292,0 7.38217,-2.052303 2.41988,-2.082935 2.41988,-6.340699 0,-4.288395 -2.41988,-6.310067 -2.38925,-2.052304 -7.38217,-2.052304 z m 0,-18.807676 v 13.784128 h 9.15879 q 4.53344,0 6.7389,-1.684727 2.23609,-1.715358 2.23609,-5.207337 0,-3.461348 -2.23609,-5.176706 -2.20546,-1.715358 -6.7389,-1.715358 z m -6.18754,-5.084812 h 15.8058 q 7.07585,0 10.90477,2.940614 3.82893,2.940614 3.82893,8.362371 0,4.196501 -1.96041,6.677644 -1.96041,2.481143 -5.7587,3.093771 4.56407,0.980205 7.07585,4.104607 2.5424,3.093771 2.5424,7.749743 0,6.126279 -4.16587,9.465101 -4.16587,3.338822 -11.85435,3.338822 h -16.41842 z" /><path
       id="path3719"
       style="font-style:normal;font-variant:normal;font-weight:normal;font-stretch:normal;font-family:Candara;-inkscape-font-specification:Candara;fill:#ffffff;stroke-width:1.56832755"
       d="m 217.25622,41.888417 q -6.83081,0 -9.46511,1.562201 -2.6343,1.562201 -2.6343,5.329863 0,3.001876 1.96041,4.778497 1.99104,1.74599 5.39113,1.74599 4.6866,0 7.50469,-3.308191 2.84872,-3.338822 2.84872,-8.852473 v -1.255887 z m 11.24172,-2.327986 v 19.573461 h -5.63618 v -5.207337 q -1.92978,3.124402 -4.80913,4.625341 -2.87935,1.470307 -7.04522,1.470307 -5.2686,0 -8.393,-2.940614 -3.09377,-2.971246 -3.09377,-7.933532 0,-5.789333 3.85955,-8.729947 3.89019,-2.940614 11.57867,-2.940614 h 7.9029 v -0.551365 q 0,-3.890188 -2.57304,-6.003754 -2.5424,-2.144197 -7.16774,-2.144197 -2.94062,0 -5.72807,0.704522 -2.78746,0.704522 -5.3605,2.113566 v -5.207337 q 3.09377,-1.194625 6.00376,-1.776621 2.90998,-0.612628 5.6668,-0.612628 7.44343,0 11.1192,3.859556 3.67577,3.859555 3.67577,11.701193 z" /><path
       id="path3721"
       style="font-style:normal;font-variant:normal;font-weight:normal;font-stretch:normal;font-family:Candara;-inkscape-font-specification:Candara;fill:#ffffff;stroke-width:1.56832755"
       d="m 262.00869,25.837566 v 5.329862 q -2.38925,-1.225255 -4.96229,-1.837883 -2.57303,-0.612628 -5.32986,-0.612628 -4.1965,0 -6.31007,1.286518 -2.08293,1.286519 -2.08293,3.859556 0,1.960409 1.50094,3.093771 1.50093,1.10273 6.03438,2.113566 l 1.92978,0.42884 q 6.00375,1.286518 8.51553,3.645136 2.5424,2.327986 2.5424,6.524487 0,4.778498 -3.79829,7.565955 -3.76766,2.787457 -10.38404,2.787457 -2.75683,0 -5.75871,-0.551366 -2.97124,-0.520733 -6.27943,-1.592832 V 52.05804 q 3.1244,1.623464 6.15691,2.450511 3.03251,0.796417 6.00375,0.796417 3.98208,0 6.12628,-1.347782 2.1442,-1.378412 2.1442,-3.859555 0,-2.297355 -1.5622,-3.522611 -1.53157,-1.225256 -6.76954,-2.358617 l -1.96041,-0.459471 q -5.23797,-1.10273 -7.56595,-3.369454 -2.32799,-2.297354 -2.32799,-6.279436 0,-4.83976 3.43072,-7.47406 3.43071,-2.6343 9.74078,-2.6343 3.1244,0 5.88123,0.459471 2.75682,0.459471 5.08481,1.378413 z" /><path
       id="path3723"
       style="font-style:normal;font-variant:normal;font-weight:normal;font-stretch:normal;font-family:Candara;-inkscape-font-specification:Candara;fill:#ffffff;stroke-width:1.56832755"
       d="m 272.85221,24.82673 h 5.63618 v 34.307162 h -5.63618 z m 0,-13.355289 h 5.63618 v 7.137115 h -5.63618 z" /><path
       id="path3725"
       style="font-style:normal;font-variant:normal;font-weight:normal;font-stretch:normal;font-family:Candara;-inkscape-font-specification:Candara;fill:#ffffff;stroke-width:1.56832755"
       d="m 314.93974,26.14388 v 5.2686 q -2.38925,-1.31715 -4.80913,-1.96041 -2.38925,-0.67389 -4.83976,-0.67389 -5.48302,0 -8.51553,3.491979 -3.03251,3.461347 -3.03251,9.740783 0,6.279436 3.03251,9.771415 3.03251,3.461348 8.51553,3.461348 2.45051,0 4.83976,-0.643259 2.41988,-0.673891 4.80913,-1.991041 v 5.207337 q -2.35862,1.10273 -4.90103,1.654095 -2.51177,0.551366 -5.36049,0.551366 -7.74974,0 -12.31382,-4.870392 -4.56408,-4.870392 -4.56408,-13.140869 0,-8.393002 4.59471,-13.202131 4.62534,-4.809129 12.65077,-4.809129 2.60367,0 5.08481,0.551365 2.48114,0.520734 4.80913,1.592833 z" /><path
       id="path3727"
       style="font-style:normal;font-variant:normal;font-weight:normal;font-stretch:normal;font-family:Candara;-inkscape-font-specification:Candara;fill:#ffffff;stroke-width:1.56832755"
       d="M 351.20732,37.293707 V 54.04908 h 9.92457 q 4.99292,0 7.38217,-2.052303 2.41988,-2.082935 2.41988,-6.340699 0,-4.288395 -2.41988,-6.310067 -2.38925,-2.052304 -7.38217,-2.052304 z m 0,-18.807676 v 13.784128 h 9.15879 q 4.53345,0 6.73891,-1.684727 2.23609,-1.715358 2.23609,-5.207337 0,-3.461348 -2.23609,-5.176706 -2.20546,-1.715358 -6.73891,-1.715358 z m -6.18754,-5.084812 h 15.8058 q 7.07585,0 10.90478,2.940614 3.82892,2.940614 3.82892,8.362371 0,4.196501 -1.96041,6.677644 -1.96041,2.481143 -5.7587,3.093771 4.56408,0.980205 7.07585,4.104607 2.54241,3.093771 2.54241,7.749743 0,6.126279 -4.16587,9.465101 -4.16587,3.338822 -11.85435,3.338822 h -16.41843 z" /><path
       id="path3729"
       style="font-style:normal;font-variant:normal;font-weight:normal;font-stretch:normal;font-family:Candara;-inkscape-font-specification:Candara;fill:#ffffff;stroke-width:1.56832755"
       d="m 387.7812,11.471441 h 5.63618 v 47.662451 h -5.63618 z" /><path
       id="path3731"
       style="font-style:normal;font-variant:normal;font-weight:normal;font-stretch:normal;font-family:Candara;-inkscape-font-specification:Candara;fill:#ffffff;stroke-width:1.56832755"
       d="m 418.47384,28.77818 q -4.53344,0 -7.16774,3.553241 -2.6343,3.522611 -2.6343,9.679521 0,6.156911 2.60367,9.710152 2.6343,3.522611 7.19837,3.522611 4.50282,0 7.13712,-3.553242 2.6343,-3.553242 2.6343,-9.679521 0,-6.095647 -2.6343,-9.648889 -2.6343,-3.583873 -7.13712,-3.583873 z m 0,-4.778498 q 7.35154,0 11.54804,4.778498 4.1965,4.778497 4.1965,13.232762 0,8.423634 -4.1965,13.232763 -4.1965,4.778498 -11.54804,4.778498 -7.38216,0 -11.57866,-4.778498 -4.16587,-4.809129 -4.16587,-13.232763 0,-8.454265 4.16587,-13.232762 4.1965,-4.778498 11.57866,-4.778498 z" /><path
       id="path3733"
       style="font-style:normal;font-variant:normal;font-weight:normal;font-stretch:normal;font-family:Candara;-inkscape-font-specification:Candara;fill:#ffffff;stroke-width:1.56832755"
       d="m 466.10568,41.582103 q 0,-6.126279 -2.5424,-9.495733 -2.51178,-3.369453 -7.07586,-3.369453 -4.53344,0 -7.07585,3.369453 -2.51177,3.369454 -2.51177,9.495733 0,6.095647 2.51177,9.465101 2.54241,3.369453 7.07585,3.369453 4.56408,0 7.07586,-3.369453 2.5424,-3.369454 2.5424,-9.465101 z m 5.63618,13.294025 q 0,8.760579 -3.89019,13.018343 -3.89019,4.288395 -11.91561,4.288395 -2.97125,0 -5.60555,-0.459471 -2.6343,-0.428839 -5.11544,-1.347781 v -5.48302 q 2.48114,1.347782 4.90102,1.991041 2.41988,0.643259 4.93166,0.643259 5.54428,0 8.30111,-2.909982 2.75682,-2.879351 2.75682,-8.729948 v -2.787457 q -1.74599,3.032508 -4.47218,4.533447 -2.7262,1.500938 -6.52449,1.500938 -6.31007,0 -10.16962,-4.809129 -3.85956,-4.809129 -3.85956,-12.74266 0,-7.964163 3.85956,-12.773292 3.85955,-4.809129 10.16962,-4.809129 3.79829,0 6.52449,1.500938 2.72619,1.500939 4.47218,4.533447 V 24.82673 h 5.63618 z" /></g></g>
</svg>